<svg width="18" height="18" viewBox="0 0 18 18" fill="none" xmlns="http://www.w3.org/2000/svg">
<path fill-rule="evenodd" clip-rule="evenodd" d="M18 9C18 13.9706 13.9706 18 9 18C4.02944 18 0 13.9706 0 9C0 4.02944 4.02944 0 9 0C13.9706 0 18 4.02944 18 9ZM10 15C10 15.5523 9.55229 16 9 16C8.44771 16 8 15.5523 8 15C8 14.4477 8.44771 14 9 14C9.55229 14 10 14.4477 10 15ZM9 2C6.79086 2 5 3.79086 5 6H7C7 4.89543 7.89543 4 9 4H9.09431C10.1468 4 11 4.85321 11 5.90569V6.41886C11 6.93267 10.6712 7.38884 10.1838 7.55132C8.87964 7.98603 8 9.20647 8 10.5811V13H10V10.5811C10 10.0673 10.3288 9.61116 10.8162 9.44868C12.1204 9.01397 13 7.79353 13 6.41886V5.90569C13 3.74864 11.2514 2 9.09431 2H9Z" fill="current"/>
</svg>
