<?xml version="1.0" standalone="no"?>
<!DOCTYPE svg PUBLIC "-//W3C//DTD SVG 20010904//EN"
 "http://www.w3.org/TR/2001/REC-SVG-20010904/DTD/svg10.dtd">
<svg version="1.0" xmlns="http://www.w3.org/2000/svg"
 width="512.000000pt" height="512.000000pt" viewBox="0 0 512.000000 512.000000"
 preserveAspectRatio="xMidYMid meet">
<metadata>
Created by potrace 1.14, written by Peter Selinger 2001-2017
</metadata>
<g transform="translate(0.000000,512.000000) scale(0.100000,-0.100000)"
fill="#000000" stroke="none">
<path d="M2240 4960 l0 -160 -160 0 -160 0 0 -160 0 -160 -160 0 -160 0 0 160
0 160 -160 0 -160 0 0 -160 0 -160 -160 0 -160 0 0 -320 0 -320 -160 0 -160 0
0 -160 0 -160 -160 0 -160 0 0 -160 0 -160 -160 0 -160 0 0 -160 0 -160 160 0
160 0 0 -160 0 -160 -160 0 -160 0 0 -160 0 -160 160 0 160 0 0 -160 0 -160
160 0 160 0 0 -160 0 -160 -160 0 -160 0 0 -160 0 -160 160 0 160 0 0 -160 0
-160 160 0 160 0 0 -160 0 -160 160 0 160 0 0 -160 0 -160 160 0 160 0 0 160
0 160 160 0 160 0 0 -160 0 -160 320 0 320 0 0 -160 0 -160 160 0 160 0 0 160
0 160 160 0 160 0 0 160 0 160 160 0 160 0 0 -160 0 -160 160 0 160 0 0 160 0
160 160 0 160 0 0 160 0 160 160 0 160 0 0 160 0 160 160 0 160 0 0 160 0 160
-160 0 -160 0 0 160 0 160 160 0 160 0 0 320 0 320 160 0 160 0 0 160 0 160
-160 0 -160 0 0 160 0 160 -160 0 -160 0 0 320 0 320 -160 0 -160 0 0 320 0
320 -160 0 -160 0 0 160 0 160 -160 0 -160 0 0 -160 0 -160 -160 0 -160 0 0
160 0 160 -320 0 -320 0 0 160 0 160 -160 0 -160 0 0 -160z m320 -320 l0 -160
160 0 160 0 0 -160 0 -160 320 0 320 0 0 160 0 160 160 0 160 0 0 -320 0 -320
-160 0 -160 0 0 -160 0 -160 320 0 320 0 0 -480 0 -480 160 0 160 0 0 160 0
160 160 0 160 0 0 -160 0 -160 -160 0 -160 0 0 -160 0 -160 -160 0 -160 0 0
-320 0 -320 160 0 160 0 0 -160 0 -160 -160 0 -160 0 0 160 0 160 -160 0 -160
0 0 -160 0 -160 -160 0 -160 0 0 -160 0 -160 160 0 160 0 0 -160 0 -160 -160
0 -160 0 0 160 0 160 -480 0 -480 0 0 160 0 160 -320 0 -320 0 0 160 0 160
-160 0 -160 0 0 320 0 320 -160 0 -160 0 0 320 0 320 -160 0 -160 0 0 320 0
320 160 0 160 0 0 160 0 160 160 0 160 0 0 160 0 160 -160 0 -160 0 0 160 0
160 160 0 160 0 0 -160 0 -160 160 0 160 0 0 160 0 160 160 0 160 0 0 160 0
160 160 0 160 0 0 -160z m-1920 -1600 l0 -160 -160 0 -160 0 0 160 0 160 160
0 160 0 0 -160z m320 -640 l0 -160 -160 0 -160 0 0 160 0 160 160 0 160 0 0
-160z m0 -960 l0 -160 -160 0 -160 0 0 160 0 160 160 0 160 0 0 -160z m640
-320 l0 -160 -160 0 -160 0 0 160 0 160 160 0 160 0 0 -160z m1280 -640 l0
-160 -160 0 -160 0 0 160 0 160 160 0 160 0 0 -160z"/>
<path d="M1920 3680 l0 -160 160 0 160 0 0 160 0 160 -160 0 -160 0 0 -160z"/>
<path d="M2560 3040 l0 -160 320 0 320 0 0 160 0 160 -320 0 -320 0 0 -160z"/>
<path d="M1600 2720 l0 -160 160 0 160 0 0 160 0 160 -160 0 -160 0 0 -160z"/>
<path d="M3520 2080 l0 -160 160 0 160 0 0 160 0 160 -160 0 -160 0 0 -160z"/>
<path d="M2560 1440 l0 -160 160 0 160 0 0 160 0 160 -160 0 -160 0 0 -160z"/>
</g>
</svg>
